<svg width="80" height="60" viewBox="0 0 80 60" fill="none" xmlns="http://www.w3.org/2000/svg">
<path d="M40.1406 51.974C56.2396 51.974 66.6563 44.3855 66.6563 44.3855C66.6563 44.3855 63.8125 51.0261 55.2917 53.8699L58.1302 58.6147C72.8229 58.1407 78.9635 48.3178 78.9635 48.3178C78.9635 26.5001 69.3906 8.81778 69.3906 8.81778C59.8177 1.50007 50.7083 1.7032 50.7083 1.7032L49.6094 2.65112C60.9115 6.17195 65.7083 12.1355 65.7083 12.1355C58.7917 8.27612 50.5573 5.49487 40.1406 5.49487C29.724 5.49487 21.4844 8.27612 14.5729 12.1355C14.5729 12.1355 19.3646 6.17195 30.6667 2.65112L29.5677 1.7032C29.5677 1.7032 20.4583 1.50007 10.8854 8.81778C10.8854 8.81778 1.3125 26.5001 1.3125 48.3178C1.3125 48.3178 7.45313 58.1407 22.1458 58.6147L24.9844 53.8699C16.4635 51.0261 13.625 44.3855 13.625 44.3855C13.625 44.3855 24.0417 51.974 40.1406 51.974Z" fill="#2B2B2B"/>
<path d="M59.0781 34.901C59.0781 35.401 59.0313 35.8906 58.9427 36.3802C58.849 36.8698 58.7135 37.3437 58.5365 37.8073C58.3594 38.2656 58.1406 38.7031 57.8802 39.1146C57.6198 39.5313 57.3281 39.9167 57 40.2656C56.6667 40.6198 56.3073 40.9323 55.9219 41.2083C55.5365 41.4896 55.125 41.7187 54.6927 41.9115C54.2656 42.1042 53.8177 42.2448 53.3594 42.3438C52.9063 42.4427 52.4427 42.4896 51.974 42.4896C51.5104 42.4896 51.0469 42.4427 50.5885 42.3438C50.1354 42.2448 49.6875 42.1042 49.2604 41.9115C48.8281 41.7187 48.4167 41.4896 48.0313 41.2083C47.6406 40.9323 47.2813 40.6198 46.9531 40.2656C46.625 39.9167 46.3281 39.5313 46.0729 39.1146C45.8125 38.7031 45.5937 38.2656 45.4167 37.8073C45.2344 37.3437 45.099 36.8698 45.0104 36.3802C44.9167 35.8906 44.875 35.401 44.875 34.901C44.875 34.401 44.9167 33.9115 45.0104 33.4219C45.099 32.9323 45.2344 32.4583 45.4167 31.9948C45.5937 31.5365 45.8125 31.099 46.0729 30.6823C46.3281 30.2708 46.625 29.8854 46.9531 29.5365C47.2813 29.1823 47.6406 28.8698 48.0313 28.5938C48.4167 28.3125 48.8281 28.0781 49.2604 27.8906C49.6875 27.6979 50.1354 27.5573 50.5885 27.4583C51.0469 27.3594 51.5104 27.3125 51.974 27.3125C52.4427 27.3125 52.9063 27.3594 53.3594 27.4583C53.8177 27.5573 54.2656 27.6979 54.6927 27.8906C55.125 28.0781 55.5365 28.3125 55.9219 28.5938C56.3073 28.8698 56.6667 29.1823 57 29.5365C57.3281 29.8854 57.6198 30.2708 57.8802 30.6823C58.1406 31.099 58.3594 31.5365 58.5365 31.9948C58.7135 32.4583 58.849 32.9323 58.9427 33.4219C59.0313 33.9115 59.0781 34.401 59.0781 34.901Z" fill="#FA6200"/>
<path d="M35.4066 34.901C35.4066 35.401 35.3597 35.8906 35.266 36.3802C35.1774 36.8698 35.042 37.3437 34.8649 37.8073C34.6826 38.2656 34.4639 38.7031 34.2087 39.1146C33.9482 39.5313 33.6514 39.9167 33.3232 40.2656C32.9951 40.6198 32.6357 40.9323 32.2503 41.2083C31.8597 41.4896 31.4482 41.7187 31.0212 41.9115C30.5889 42.1042 30.1462 42.2448 29.6878 42.3438C29.2295 42.4427 28.766 42.4896 28.3024 42.4896C27.8337 42.4896 27.3753 42.4427 26.917 42.3438C26.4587 42.2448 26.016 42.1042 25.5837 41.9115C25.1514 41.7187 24.7451 41.4896 24.3545 41.2083C23.9691 40.9323 23.6097 40.6198 23.2816 40.2656C22.9482 39.9167 22.6566 39.5313 22.3962 39.1146C22.1357 38.7031 21.917 38.2656 21.7399 37.8073C21.5628 37.3437 21.4274 36.8698 21.3337 36.3802C21.2451 35.8906 21.1982 35.401 21.1982 34.901C21.1982 34.401 21.2451 33.9115 21.3337 33.4219C21.4274 32.9323 21.5628 32.4583 21.7399 31.9948C21.917 31.5365 22.1357 31.099 22.3962 30.6823C22.6566 30.2708 22.9482 29.8854 23.2816 29.5365C23.6097 29.1823 23.9691 28.8698 24.3545 28.5938C24.7451 28.3125 25.1514 28.0781 25.5837 27.8906C26.016 27.6979 26.4587 27.5573 26.917 27.4583C27.3753 27.3594 27.8337 27.3125 28.3024 27.3125C28.766 27.3125 29.2295 27.3594 29.6878 27.4583C30.1462 27.5573 30.5889 27.6979 31.0212 27.8906C31.4482 28.0781 31.8597 28.3125 32.2503 28.5938C32.6357 28.8698 32.9951 29.1823 33.3232 29.5365C33.6514 29.8854 33.9482 30.2708 34.2087 30.6823C34.4639 31.099 34.6826 31.5365 34.8649 31.9948C35.042 32.4583 35.1774 32.9323 35.266 33.4219C35.3597 33.9115 35.4066 34.401 35.4066 34.901Z" fill="#FA6200"/>
<path d="M58.1304 59.5626C57.797 59.5626 57.4897 59.3908 57.3179 59.1043L54.4793 54.3595C54.3335 54.1147 54.3022 53.8126 54.4012 53.5418C54.5002 53.271 54.7189 53.0626 54.9897 52.9741C59.12 51.5939 61.8543 49.2762 63.5314 47.3439C59.0991 49.646 50.896 52.922 40.1408 52.922C29.4012 52.922 21.2033 49.6564 16.7658 47.3543C18.4533 49.2866 21.1825 51.6043 25.2866 52.9741C25.5575 53.0626 25.7762 53.271 25.8752 53.5418C25.9741 53.8126 25.9481 54.1147 25.797 54.3595L22.9585 59.1043C22.7814 59.396 22.4377 59.5835 22.1147 59.5626C7.09391 59.0783 0.770997 49.2397 0.510579 48.8178C0.41683 48.6668 0.364746 48.4949 0.364746 48.3178C0.364746 26.5106 9.9585 8.5418 10.0522 8.36472C10.1147 8.24493 10.2033 8.14076 10.3127 8.06264C20.0418 0.625135 29.1981 0.744927 29.5887 0.755343C29.8075 0.760551 30.0158 0.838677 30.1825 0.98451L31.2866 1.93243C31.547 2.15639 31.6668 2.50534 31.5939 2.84389C31.5262 3.18243 31.2762 3.45326 30.9481 3.55743C26.7918 4.8543 23.5418 6.48451 21.0991 8.01576C27.1252 5.68763 33.4116 4.54701 40.1408 4.54701C46.8543 4.54701 53.1304 5.68243 59.146 8.00014C56.7085 6.47409 53.4585 4.84388 49.3283 3.55743C49.0002 3.45326 48.7502 3.18243 48.6825 2.84389C48.6095 2.50534 48.7293 2.15639 48.9897 1.93243L50.0939 0.98451C50.2606 0.838677 50.4689 0.760551 50.6877 0.755343C51.0731 0.750135 60.2345 0.625135 69.9637 8.06264C70.0731 8.14076 70.1616 8.24493 70.2241 8.36472C70.3231 8.5418 79.9116 26.5106 79.9116 48.3178C79.9116 48.4949 79.8595 48.6668 79.7658 48.8178C79.5054 49.2397 73.1877 59.0783 58.1616 59.5626C58.1512 59.5626 58.1408 59.5626 58.1304 59.5626ZM56.6929 54.3699L58.6512 57.646C71.0627 57.0262 77.0366 49.4064 78.0158 48.0262C77.9377 27.9689 69.6252 11.3283 68.6512 9.44284C62.2918 4.64076 56.1564 3.23451 52.9741 2.81784C62.2241 6.39597 66.2606 11.3126 66.4429 11.5418C66.7293 11.896 66.7241 12.4012 66.4325 12.7449C66.1356 13.0939 65.6408 13.1824 65.245 12.9637C57.3908 8.57826 49.1772 6.44284 40.1408 6.44284C31.0991 6.44284 22.8856 8.57826 15.0314 12.9637C14.6356 13.1876 14.1408 13.0939 13.8439 12.7449C13.5522 12.4012 13.547 11.896 13.8335 11.5418C14.0158 11.3126 18.047 6.40118 27.2814 2.82826C24.0939 3.24493 17.9533 4.6668 11.6252 9.44284C10.6512 11.3283 2.3387 27.9897 2.26058 48.0262C3.23975 49.4064 9.2137 57.0262 21.6252 57.646L23.5835 54.3751C15.6095 51.2553 12.87 45.0366 12.7502 44.7606C12.5835 44.3699 12.6981 43.9116 13.0314 43.646C13.3647 43.3803 13.8335 43.3699 14.1772 43.6199C14.2814 43.6928 24.5627 51.0262 40.1408 51.0262C55.7137 51.0262 65.995 43.6928 66.0991 43.6199C66.4429 43.3699 66.9116 43.3803 67.245 43.646C67.5783 43.9116 67.6929 44.3699 67.5262 44.7606C67.4064 45.0366 64.6668 51.2553 56.6929 54.3699Z" fill="#2B2B2B"/>
<path d="M51.9741 43.4377C47.5366 43.4377 43.9272 39.6095 43.9272 34.9012C43.9272 30.1929 47.5366 26.3647 51.9741 26.3647C56.4168 26.3647 60.0262 30.1929 60.0262 34.9012C60.0262 39.6095 56.4168 43.4377 51.9741 43.4377ZM51.9741 28.2606C48.5835 28.2606 45.8231 31.2397 45.8231 34.9012C45.8231 38.5627 48.5835 41.5418 51.9741 41.5418C55.37 41.5418 58.1304 38.5627 58.1304 34.9012C58.1304 31.2397 55.37 28.2606 51.9741 28.2606Z" fill="#2B2B2B"/>
<path d="M28.3021 43.4377C23.8646 43.4377 20.25 39.6095 20.25 34.9012C20.25 30.1929 23.8646 26.3647 28.3021 26.3647C32.7396 26.3647 36.349 30.1929 36.349 34.9012C36.349 39.6095 32.7396 43.4377 28.3021 43.4377ZM28.3021 28.2606C24.9063 28.2606 22.1458 31.2397 22.1458 34.9012C22.1458 38.5627 24.9063 41.5418 28.3021 41.5418C31.6979 41.5418 34.4583 38.5627 34.4583 34.9012C34.4583 31.2397 31.6979 28.2606 28.3021 28.2606Z" fill="#2B2B2B"/>
<path d="M63.3389 16.1875C63.2608 16.1875 63.1826 16.1667 63.1097 16.1302C62.9326 16.0313 62.7555 15.9427 62.5733 15.849L62.1722 15.6458C61.943 15.526 61.8545 15.2396 61.9743 15.0052C62.0941 14.7761 62.3857 14.6875 62.6149 14.8073L62.9951 15C63.1878 15.099 63.3805 15.1927 63.568 15.2969C63.7972 15.4219 63.8805 15.7136 63.7555 15.9427C63.667 16.099 63.5055 16.1875 63.3389 16.1875Z" fill="#2B2B2B"/>
<path d="M60.5001 14.7397C60.4324 14.7397 60.3595 14.7241 60.297 14.6928C58.8282 14.0001 57.2918 13.3803 55.6095 12.797C55.3595 12.7137 55.2293 12.4428 55.3178 12.1928C55.4011 11.948 55.672 11.8178 55.9168 11.9012C57.6355 12.4949 59.198 13.1303 60.698 13.8387C60.9376 13.948 61.0366 14.2293 60.9272 14.4689C60.8438 14.6407 60.6772 14.7397 60.5001 14.7397Z" fill="#2B2B2B"/>
<path d="M16.9376 16.1876C16.771 16.1876 16.6095 16.099 16.521 15.9428C16.396 15.7136 16.4793 15.422 16.7085 15.297C24.0574 11.2553 31.7189 9.29175 40.1407 9.29175C44.9689 9.29175 49.5053 9.94279 54.0053 11.2865C54.2553 11.3647 54.396 11.6251 54.323 11.8751C54.2501 12.1303 53.9845 12.2709 53.7345 12.198C49.323 10.8803 44.8751 10.2397 40.1407 10.2397C31.8803 10.2397 24.3699 12.1667 17.1668 16.1251C17.0939 16.1667 17.0157 16.1876 16.9376 16.1876Z" fill="#2B2B2B"/>
</svg>
