<svg width="71" height="58" viewBox="0 0 71 58" fill="none" xmlns="http://www.w3.org/2000/svg">
<path d="M63.2969 14.5104C63.3385 15.1354 63.3385 15.7604 63.3385 16.3854C63.3385 35.552 48.9219 57.6562 22.5729 57.6562V57.6406C14.7865 57.6562 7.16667 55.401 0.609375 51.1406C1.74479 51.2812 2.88021 51.3489 4.02083 51.3489C10.474 51.3541 16.7396 49.1666 21.8177 45.1302C15.6823 45.0104 10.3073 40.9635 8.43229 35.0572C10.5781 35.4791 12.7917 35.3906 14.8958 34.8072C8.21354 33.4427 3.40625 27.4947 3.40625 20.5885C3.40625 20.526 3.40625 20.4687 3.40625 20.4062C5.39583 21.5312 7.625 22.151 9.90625 22.2239C3.61458 17.9635 1.67187 9.48954 5.47396 2.85933C12.75 11.9218 23.4792 17.427 35 18.0104C33.8438 12.9739 35.4271 7.69787 39.1458 4.15621C44.9167 -1.33859 53.9948 -1.05734 59.4167 4.78121C62.625 4.14058 65.7031 2.94787 68.5156 1.26037C67.4427 4.61975 65.2083 7.47391 62.2188 9.28121C65.0573 8.94266 67.8333 8.17704 70.4427 6.99996C68.5208 9.91662 66.099 12.4583 63.2969 14.5104Z" fill="#2B2B2B"/>
</svg>
